{
  "accessors": [
    {
      "bufferView": 2,
      "componentType": 5126,
      "count": 918,
      "max": [
        6.1316533088684082,
        11.985454559326172,
        6.4081344604492188
      ],
      "min": [
        -6.1905293464660645,
        -0.031296789646148682,
        -6.4479279518127441
      ],
      "type": "VEC3"
    },
    {
      "bufferView": 2,
      "byteOffset": 11016,
      "componentType": 5126,
      "count": 918,
      "max": [
        0.99818927049636841,
        0.99938791990280151,
        0.99967396259307861
      ],
      "min": [
        -0.99707293510437012,
        -0.99968463182449341,
        -0.99766051769256592
      ],
      "type": "VEC3"
    },
    {
      "bufferView": 3,
      "componentType": 5126,
      "count": 918,
      "max": [
        0.97930878400802612,
        0.99504846334457397,
        0.99988573789596558,
        1
      ],
      "min": [
        -0.89112234115600586,
        -0.67486625909805298,
        -0.9989311695098877,
        1
      ],
      "type": "VEC4"
    },
    {
      "bufferView": 1,
      "componentType": 5126,
      "count": 918,
      "max": [
        0.99259501695632935,
        0.99093401432037354
      ],
      "min": [
        0.0035180000122636557,
        0.0055599999614059925
      ],
      "type": "VEC2"
    },
    {
      "bufferView": 0,
      "componentType": 5125,
      "count": 4764,
      "max": [
        917
      ],
      "min": [
        0
      ],
      "type": "SCALAR"
    }
  ],
  "asset": {
    "extras": {
      "author": "DigitalSouls (https://sketchfab.com/DigitalSouls)",
      "license": "CC-BY-NC-4.0 (http://creativecommons.org/licenses/by-nc/4.0/)",
      "source": "https://sketchfab.com/3d-models/fresh-orange-0896dc31d5154c97aa3f24e8ec1277aa",
      "title": "Fresh Orange"
    },
    "generator": "Sketchfab-5.35.0",
    "version": "2.0"
  },
  "bufferViews": [
    {
      "buffer": 0,
      "byteLength": 19056,
      "byteOffset": 0,
      "name": "floatBufferViews",
      "target": 34963
    },
    {
      "buffer": 0,
      "byteLength": 7344,
      "byteOffset": 19056,
      "byteStride": 8,
      "name": "floatBufferViews",
      "target": 34962
    },
    {
      "buffer": 0,
      "byteLength": 22032,
      "byteOffset": 26400,
      "byteStride": 12,
      "name": "floatBufferViews",
      "target": 34962
    },
    {
      "buffer": 0,
      "byteLength": 14688,
      "byteOffset": 48432,
      "byteStride": 16,
      "name": "floatBufferViews",
      "target": 34962
    }
  ],
  "buffers": [
    {
      "byteLength": 63120,
      "uri": "scene.bin"
    }
  ],
  "images": [
    {
      "uri": "textures/defaultMat_metallicRoughness.png"
    },
    {
      "uri": "textures/defaultMat_baseColor.png"
    },
    {
      "uri": "textures/defaultMat_normal.png"
    }
  ],
  "materials": [
    {
      "doubleSided": true,
      "name": "defaultMat",
      "normalTexture": {
        "index": 2,
        "scale": 1,
        "texCoord": 0
      },
      "occlusionTexture": {
        "index": 0,
        "strength": 1,
        "texCoord": 0
      },
      "pbrMetallicRoughness": {
        "baseColorFactor": [
          1,
          1,
          1,
          1
        ],
        "baseColorTexture": {
          "index": 1,
          "texCoord": 0
        },
        "metallicFactor": 1,
        "metallicRoughnessTexture": {
          "index": 0,
          "texCoord": 0
        },
        "roughnessFactor": 1
      }
    }
  ],
  "meshes": [
    {
      "name": "Orange_defaultMat_0",
      "primitives": [
        {
          "attributes": {
            "NORMAL": 1,
            "POSITION": 0,
            "TANGENT": 2,
            "TEXCOORD_0": 3
          },
          "indices": 4,
          "material": 0,
          "mode": 4
        }
      ]
    }
  ],
  "nodes": [
    {
      "children": [
        1
      ],
      "name": "RootNode (gltf orientation matrix)",
      "rotation": [
        -0.70710678118654746,
        -0,
        -0,
        0.70710678118654757
      ]
    },
    {
      "children": [
        2
      ],
      "matrix": [
        0.97085291147232056,
        -0.043226812034845352,
        0.23574575781822205,
        0,
        -0.032995942980051041,
        0.9501304030418396,
        0.31010237336158752,
        0,
        -0.23739394545555115,
        -0.30884245038032532,
        0.92101055383682251,
        0,
        1.4187207221984863,
        1.8456951379776001,
        0.47289508581161499,
        1
      ],
      "name": "RootNode (model correction matrix)"
    },
    {
      "children": [
        3
      ],
      "matrix": [
        1,
        0,
        0,
        0,
        0,
        0,
        1,
        0,
        0,
        -1,
        0,
        0,
        0,
        0,
        0,
        1
      ],
      "name": "orange_low.fbx"
    },
    {
      "children": [
        4
      ],
      "name": "RootNode"
    },
    {
      "children": [
        5
      ],
      "name": "Orange"
    },
    {
      "mesh": 0,
      "name": "Orange_defaultMat_0"
    }
  ],
  "samplers": [
    {
      "magFilter": 9729,
      "minFilter": 9987,
      "wrapS": 10497,
      "wrapT": 10497
    }
  ],
  "scene": 0,
  "scenes": [
    {
      "name": "OSG_Scene",
      "nodes": [
        0
      ]
    }
  ],
  "textures": [
    {
      "sampler": 0,
      "source": 0
    },
    {
      "sampler": 0,
      "source": 1
    },
    {
      "sampler": 0,
      "source": 2
    }
  ]
}

